<svg width="64" height="64" viewBox="0 0 64 64" fill="none" xmlns="http://www.w3.org/2000/svg">
  <defs>
    <linearGradient id="bg" x1="10" y1="6" x2="54" y2="58" gradientUnits="userSpaceOnUse">
      <stop stop-color="#2563EB" />
      <stop offset="1" stop-color="#1E3A8A" />
    </linearGradient>
    <linearGradient id="agent" x1="24" y1="18" x2="44" y2="46" gradientUnits="userSpaceOnUse">
      <stop stop-color="#EFF6FF" stop-opacity="0.85" />
      <stop offset="1" stop-color="#93C5FD" stop-opacity="0.9" />
    </linearGradient>
    <filter id="glow" x="8" y="8" width="48" height="52" filterUnits="userSpaceOnUse" color-interpolation-filters="sRGB">
      <feGaussianBlur in="SourceAlpha" stdDeviation="2" result="blur" />
      <feOffset dy="1" in="blur" result="offset" />
      <feMerge>
        <feMergeNode in="offset" />
        <feMergeNode in="SourceGraphic" />
      </feMerge>
    </filter>
  </defs>
  <rect width="64" height="64" rx="16" fill="url(#bg)" />
  <g filter="url(#glow)">
    <path
      d="M20 46.5C20 38.492 26.492 32 34.5 32C42.508 32 49 38.492 49 46.5V50H20V46.5Z"
      fill="#0F172A"
      fill-opacity="0.25"
    />
    <path
      d="M23.5 46C23.5 39.648 28.648 34.5 35 34.5C41.352 34.5 46.5 39.648 46.5 46V50H23.5V46Z"
      fill="url(#agent)"
    />
    <circle cx="33" cy="26" r="10" fill="url(#agent)" />
    <path
      d="M27 26.5C27.9 24 30.2 22.5 33 22.5C35.8 22.5 38.1 24 39 26.5"
      stroke="#1E3A8A"
      stroke-width="1.6"
      stroke-linecap="round"
      stroke-opacity="0.65"
    />
    <path
      d="M29 30C31 32.2 35 33 37.5 31.5"
      stroke="#1D4ED8"
      stroke-width="1.6"
      stroke-linecap="round"
      stroke-opacity="0.65"
    />
    <g stroke="#38BDF8" stroke-width="1.4" stroke-linecap="round">
      <line x1="24" y1="20" x2="19" y2="16" stroke-opacity="0.7" />
      <line x1="24" y1="32" x2="18" y2="35" stroke-opacity="0.6" />
      <line x1="42" y1="20" x2="47" y2="16" stroke-opacity="0.7" />
      <line x1="41" y1="33" x2="46" y2="37" stroke-opacity="0.6" />
    </g>
    <circle cx="19" cy="16" r="2.2" fill="#38BDF8" fill-opacity="0.9" />
    <circle cx="47" cy="16" r="2.2" fill="#38BDF8" fill-opacity="0.9" />
    <circle cx="18" cy="35" r="1.8" fill="#60A5FA" />
    <circle cx="46" cy="37" r="1.8" fill="#60A5FA" />
    <circle cx="24" cy="33" r="1.6" fill="#A855F7" />
    <circle cx="42" cy="20" r="1.6" fill="#A855F7" />
  </g>
</svg>
